<?xml version="1.0" standalone="no"?>
<!DOCTYPE svg PUBLIC "-//W3C//DTD SVG 20010904//EN"
 "http://www.w3.org/TR/2001/REC-SVG-20010904/DTD/svg10.dtd">
<svg version="1.0" xmlns="http://www.w3.org/2000/svg"
 width="300.000000pt" height="300.000000pt" viewBox="0 0 300.000000 300.000000"
 preserveAspectRatio="xMidYMid meet">
<metadata>
Created by potrace 1.10, written by Peter Selinger 2001-2011
</metadata>
<g transform="translate(0.000000,300.000000) scale(0.050000,-0.050000)"
fill="#000000" stroke="none">
<path d="M2790 5681 c-99 -52 -202 -100 -228 -107 -53 -13 -53 -294 0 -482 17
-61 16 -81 -5 -94 -21 -14 -20 -17 6 -18 20 0 46 -33 66 -83 172 -429 433
-456 661 -66 120 206 178 210 540 39 1033 -488 1460 -1624 1019 -2709 -151
-371 -469 -713 -480 -516 -2 31 -14 90 -28 132 -17 52 -19 97 -6 144 38 141
-9 330 -73 290 -10 -6 -23 2 -28 17 -6 15 -33 24 -61 21 -39 -4 -69 16 -127
84 l-76 89 -140 -10 c-77 -6 -153 -13 -170 -16 -53 -9 -240 27 -240 47 0 11
10 13 23 5 15 -9 18 -5 8 10 -9 15 -23 17 -38 6 -58 -46 -90 -21 -65 51 13 37
32 68 43 68 10 0 44 40 74 89 30 48 64 88 75 88 11 0 20 19 20 41 0 27 8 36
23 27 16 -10 20 -4 11 19 -7 18 -6 33 2 33 8 0 15 27 16 61 1 33 -2 56 -7 51
-5 -5 -28 8 -51 29 -59 56 -164 44 -236 -25 -59 -57 -237 -159 -257 -147 -12
8 -16 0 -8 -20 10 -25 3 -31 -25 -25 -37 7 -39 19 -26 136 2 17 -3 48 -11 70
-10 28 -9 32 4 13 16 -21 22 -21 31 5 7 17 3 36 -7 43 -11 6 -14 20 -8 31 6
10 20 13 31 7 10 -7 17 -5 14 5 -2 9 7 37 22 63 15 29 17 42 4 34 -13 -8 -22
1 -22 19 0 18 -10 26 -21 19 -12 -7 -18 -23 -13 -36 5 -15 -20 -24 -70 -26
-116 -5 -190 -128 -99 -163 30 -11 34 -24 21 -59 -37 -100 -161 -36 -302 155
-165 223 -237 895 -116 1089 37 61 49 69 63 45 15 -27 25 -28 70 -4 62 32 136
11 197 -56 54 -59 58 -149 8 -165 -30 -9 -34 -19 -18 -49 25 -46 -13 -62 -137
-57 -46 2 -94 -6 -106 -18 -12 -12 -34 -17 -49 -11 -17 6 -28 -3 -28 -23 0
-18 8 -28 19 -22 10 6 23 4 29 -6 6 -10 36 -14 67 -9 53 8 53 7 16 -23 -21
-17 -50 -31 -65 -31 -14 0 -26 -19 -26 -42 0 -41 2 -41 49 -11 49 33 94 -13
63 -64 -6 -9 1 -34 16 -54 50 -67 125 7 179 175 21 67 85 35 76 -38 -12 -108
15 -246 49 -246 17 0 24 -10 17 -21 -7 -12 -25 -17 -40 -11 -15 6 -33 2 -40
-9 -6 -11 -33 -14 -60 -7 -37 9 -49 4 -49 -20 0 -21 17 -32 51 -32 44 0 51 -8
45 -53 -6 -55 -25 -72 -126 -110 l-60 -23 50 -13 c30 -9 66 -4 89 12 22 15 77
27 121 27 45 0 93 11 106 24 27 27 33 64 9 49 -9 -5 -17 46 -19 114 -7 254
-52 453 -103 453 -9 0 -16 14 -16 30 0 17 13 30 29 30 23 0 24 6 4 30 -19 23
-19 37 -2 58 103 124 9 269 -168 260 -89 -4 -92 -3 -24 9 l77 13 -44 47 c-35
37 -58 45 -117 37 -180 -25 -234 -43 -250 -86 -6 -15 -25 -28 -43 -28 -17 0
-26 -9 -19 -20 7 -11 5 -20 -4 -20 -30 0 -60 -93 -43 -137 10 -27 8 -43 -5
-43 -12 0 -19 -29 -18 -65 6 -105 1 -138 -19 -126 -11 7 -14 -18 -7 -62 11
-64 8 -72 -22 -61 -22 9 -29 6 -21 -8 8 -12 38 -17 67 -11 52 10 53 7 45 -63
-9 -73 -9 -73 -27 -20 -11 30 -29 50 -44 44 -25 -10 -13 -218 16 -265 7 -11 3
-26 -9 -34 -14 -9 -8 -27 19 -52 23 -21 42 -48 42 -59 0 -11 18 -39 39 -62 22
-23 35 -50 29 -60 -6 -10 12 -36 41 -58 28 -23 47 -48 41 -57 -5 -9 13 -31 40
-49 28 -18 50 -47 50 -64 0 -17 10 -24 22 -17 20 13 9 -196 -12 -231 -4 -6 -9
-64 -12 -130 -6 -118 -35 -235 -67 -265 -10 -8 -10 -2 -1 13 11 19 9 24 -7 14
-13 -8 -23 -27 -23 -43 0 -16 -10 -29 -21 -29 -12 0 -16 -9 -9 -20 7 -11 3
-20 -9 -20 -11 0 -19 -11 -16 -25 3 -16 -25 -27 -78 -31 -93 -7 -115 22 -113
149 1 99 -58 72 -98 -45 -38 -109 -47 -268 -15 -268 11 0 51 13 89 29 43 18
74 21 81 9 7 -11 29 -14 48 -8 23 7 41 -1 49 -22 21 -56 66 2 113 149 24 73
65 155 91 182 l48 50 -4 -70 c-2 -38 -2 -109 0 -159 l5 -90 32 66 c52 105 53
59 1 -59 -57 -128 -107 -179 -126 -128 -16 41 7 225 34 276 11 20 17 52 13 71
-5 19 -28 -31 -53 -111 -64 -204 -99 -242 -217 -240 -58 1 -103 13 -116 30
-18 25 -25 24 -48 -3 -80 -97 -141 -28 -141 161 0 156 21 201 114 240 60 25
74 53 29 59 -7 1 -30 9 -52 18 -25 11 -41 9 -47 -7 -4 -13 -15 -19 -24 -13 -9
6 -29 -1 -43 -15 -15 -14 -40 -25 -57 -25 -16 0 -29 -11 -28 -25 1 -14 4 -90
6 -170 l5 -145 37 80 c45 97 53 59 9 -45 -35 -84 -107 -169 -130 -154 -24 15
3 235 33 269 15 18 19 42 9 58 -20 33 -29 18 -69 -116 -46 -155 -81 -202 -152
-202 -46 0 -60 9 -60 39 0 53 41 74 64 33 28 -51 67 -9 108 115 18 56 50 136
70 176 41 82 15 116 -43 59 -30 -29 -70 -112 -55 -112 3 0 -15 -29 -41 -65
-25 -36 -54 -60 -65 -54 -10 6 -18 -2 -18 -18 0 -15 -23 -44 -52 -62 -36 -24
-47 -44 -37 -67 7 -19 14 -45 15 -59 0 -14 5 -20 11 -15 5 6 26 -5 46 -23 21
-18 37 -25 37 -15 0 10 9 5 20 -12 16 -24 23 -25 37 -4 22 35 86 43 117 16 66
-58 83 -69 94 -57 7 6 12 2 12 -10 0 -13 -9 -28 -20 -35 -27 -16 -26 -50 1
-50 35 0 73 -48 68 -85 -3 -19 3 -40 14 -47 12 -7 10 -23 -4 -40 -17 -20 -18
-28 -1 -28 12 0 22 -11 23 -25 1 -45 199 -161 199 -117 0 31 141 46 173 19 17
-14 64 -22 104 -19 171 13 457 20 793 19 524 -3 649 2 829 31 196 31 198 14
10 -93 -76 -43 -140 -80 -141 -82 -18 -24 52 -281 74 -274 156 50 394 -3 774
-172 363 -162 590 -192 566 -76 -14 65 -13 274 1 350 l13 70 -113 0 c-99 -1
-144 14 -363 123 -237 118 -590 238 -609 207 -16 -25 -193 -7 -221 21 -35 37
-50 381 -17 392 16 6 20 -8 13 -38 -8 -31 -5 -39 9 -26 29 29 52 137 25 120
-11 -7 6 41 40 107 90 177 167 193 101 21 -40 -106 -35 -115 36 -66 25 18 50
28 56 22 5 -6 -14 -27 -44 -47 -147 -102 -154 -124 -58 -176 90 -49 78 -82
-28 -76 l-83 6 0 -81 c0 -105 72 -146 114 -65 34 66 33 71 -14 59 -22 -6 -45
-2 -51 8 -6 10 22 18 62 18 l73 0 -7 -80 c-9 -85 23 -119 64 -69 16 20 46 25
97 17 85 -14 144 40 302 272 809 1192 234 2831 -1148 3271 l-142 46 -10 -53
c-6 -31 -26 -57 -48 -61 -31 -6 -35 1 -25 40 30 109 55 319 49 416 l-6 103
-119 48 c-65 27 -162 76 -216 109 -117 73 -86 77 -305 -38z m384 -96 l191 -95
-11 -180 c-24 -357 -213 -710 -381 -710 -162 0 -370 442 -372 790 l-1 100 175
92 c217 115 175 115 399 3z m-794 -2013 c0 -26 14 -79 30 -119 37 -89 38 -113
2 -113 -16 0 -37 37 -50 89 -27 110 -28 191 -2 191 11 0 20 -21 20 -48z m1140
-588 c0 -45 -39 -102 -191 -274 -155 -177 -292 -380 -308 -457 -7 -33 -24 -64
-39 -69 -19 -6 -22 3 -12 36 29 93 -45 225 -122 216 -83 -10 -98 54 -20 83 75
29 609 419 633 462 26 49 59 51 59 3z m-780 -122 c0 -9 28 -29 62 -43 34 -14
69 -46 79 -72 10 -26 27 -47 39 -47 32 0 23 -40 -11 -53 -21 -8 -60 15 -110
64 -91 88 -106 60 -39 -71 49 -96 49 -93 0 -106 -43 -11 -80 -88 -80 -165 0
-27 -9 -49 -20 -49 -25 0 -25 25 1 250 27 243 40 310 61 310 10 0 18 -8 18
-18z m680 -542 c51 -51 51 -110 0 -146 -36 -25 -37 -31 -10 -54 71 -59 2 -200
-99 -200 -58 0 -75 21 -50 61 17 25 21 25 38 0 10 -17 23 -26 27 -20 20 22 30
133 15 158 -11 17 -7 38 11 56 66 66 -3 169 -101 150 -70 -13 -145 -99 -115
-129 35 -35 29 -56 -17 -56 -92 0 -62 114 47 181 84 51 202 51 254 -1z m-560
15 c0 -3 -14 -41 -29 -85 -44 -121 -41 -279 4 -259 19 8 69 17 111 19 42 3 81
11 88 18 30 30 68 11 56 -28 -10 -31 -4 -40 27 -40 42 0 67 57 92 202 12 77
75 150 109 129 13 -8 10 -41 -9 -94 -16 -45 -29 -100 -29 -121 0 -88 -104
-154 -238 -152 -96 1 -122 8 -114 29 9 22 -3 21 -61 -3 -94 -39 -121 -38 -145
6 -22 41 12 317 44 359 15 20 95 37 94 20z m942 -20 c5 -47 -6 -105 -26 -142
-28 -54 -38 -30 -17 43 10 35 11 64 2 64 -23 0 -45 -96 -31 -139 6 -19 -3 -47
-20 -61 -37 -31 -39 -68 -3 -97 41 -35 82 26 124 184 27 105 47 142 83 158
108 50 104 -69 -7 -230 -43 -61 -48 -80 -27 -104 36 -45 98 -3 135 91 21 51
44 78 68 78 41 0 50 -49 14 -72 -14 -9 -18 -5 -9 9 8 13 5 23 -7 23 -18 0 -30
-80 -26 -175 0 -14 -12 -25 -27 -25 -15 0 -28 14 -28 31 0 28 -4 28 -44 0 -54
-37 -129 -41 -142 -6 -7 20 -17 20 -51 0 -54 -32 -137 -32 -148 -1 -5 17 -21
14 -55 -10 -51 -36 -100 -16 -100 41 0 75 48 182 85 192 41 11 42 -7 2 -145
-36 -127 47 -14 87 120 44 142 83 198 140 198 14 0 27 -11 28 -25z m-206 -62
c4 -19 -6 -33 -23 -33 -38 0 -60 33 -42 61 18 29 58 13 65 -28z m-1291 -483
c10 -54 -44 -123 -60 -75 -40 120 -54 -59 -14 -190 13 -42 8 -45 -78 -45 -87
0 -91 2 -75 45 9 25 23 80 30 122 l15 77 -60 -13 c-69 -16 -89 7 -71 78 19 78
298 79 313 1z m275 20 c17 -20 21 -61 13 -119 -7 -51 -4 -94 8 -101 49 -31 20
-110 -41 -110 -53 0 -60 7 -60 59 0 32 -10 65 -21 72 -15 9 -17 -10 -8 -59
l13 -72 -82 0 c-69 0 -82 6 -82 40 0 22 10 40 23 40 16 0 19 41 11 140 l-12
140 107 0 c70 0 115 -10 131 -30z m323 -98 c19 -65 44 -127 56 -139 47 -47 24
-93 -49 -93 -64 0 -70 5 -70 57 0 35 -11 56 -28 56 -18 0 -27 -19 -25 -51 3
-46 -5 -53 -72 -58 -88 -8 -89 -2 -28 139 26 59 57 132 70 163 41 99 104 66
146 -74z m227 -52 l0 -180 -60 0 -60 0 -1 180 -1 180 61 0 61 0 0 -180z m195
100 c18 -44 42 -80 54 -80 16 0 16 11 2 39 -41 76 -26 121 39 121 l60 0 0
-180 c0 -217 -59 -259 -140 -100 -22 44 -46 80 -52 80 -6 0 -5 -36 2 -80 l14
-80 -72 0 c-73 0 -105 58 -50 91 21 13 16 100 -13 214 -26 102 115 80 156 -25z
m315 -68 c0 -82 5 -163 12 -180 10 -25 -2 -32 -55 -32 l-67 0 0 180 0 180 55
0 55 0 0 -148z m200 78 c34 -104 67 -112 50 -13 -13 83 -13 83 49 83 l63 0 -6
-175 c-7 -204 -68 -251 -139 -108 -50 100 -63 102 -48 8 l15 -85 -73 0 -73 0
12 95 c7 52 17 116 22 142 6 29 2 42 -11 33 -13 -7 -21 8 -21 39 0 89 129 74
160 -19z m570 -490 c33 -10 59 -15 86 -18 15 -1 20 -12 13 -24 -9 -15 -1 -18
26 -10 23 8 49 1 63 -15 13 -16 41 -24 62 -19 24 7 44 -1 51 -20 7 -18 25 -27
40 -21 16 6 34 -3 41 -21 7 -17 18 -28 25 -24 28 16 103 -29 103 -62 1 -31 4
-32 21 -6 17 27 23 27 44 -1 14 -16 43 -30 64 -30 22 1 50 -20 63 -46 13 -26
28 -39 32 -30 5 9 7 7 4 -6 -3 -12 3 -32 14 -45 13 -15 11 -16 -6 -2 -13 11
-32 20 -41 20 -10 0 -12 -9 -5 -20 7 -11 -2 -20 -19 -20 -18 0 -38 14 -44 31
-7 19 -26 26 -49 18 -25 -7 -43 0 -50 20 -7 17 -21 25 -32 19 -10 -7 -41 8
-67 33 -31 29 -49 36 -49 19 0 -19 -9 -18 -37 7 -20 18 -56 33 -81 33 -24 0
-39 9 -32 20 13 20 -12 27 -75 21 -19 -2 -41 11 -48 29 -9 24 -17 26 -27 10
-11 -18 -22 -17 -41 5 -15 16 -48 24 -76 19 -33 -7 -44 -3 -35 13 8 13 6 23
-5 23 -11 0 -24 -11 -28 -25 -7 -18 -21 -15 -51 12 -24 22 -36 50 -29 68 8 22
4 27 -13 16 -14 -9 -21 -32 -16 -53 11 -40 -34 -54 -56 -19 -15 25 66 106 91
91 10 -7 19 -5 19 4 0 15 106 19 150 6z"/>
<path d="M2805 5546 c-164 -87 -165 -88 -165 -168 0 -349 247 -800 388 -708
150 99 268 359 285 630 l10 170 -166 80 c-92 44 -171 81 -177 82 -5 1 -84 -37
-175 -86z m208 -261 l18 -175 26 87 c14 48 27 109 29 136 2 26 13 45 24 42 11
-3 19 -9 17 -15 -11 -45 -27 -260 -18 -260 12 0 99 162 100 188 1 24 51 41 51
18 0 -10 -7 -27 -17 -37 -9 -10 -33 -75 -53 -144 l-36 -125 -173 0 -173 0 -27
105 c-15 58 -31 116 -36 130 -5 14 1 25 12 25 12 0 28 -22 35 -49 45 -182 73
-75 40 157 -1 9 10 21 24 27 15 5 24 -3 21 -18 -3 -15 7 -76 22 -137 33 -134
57 -96 60 95 2 181 32 153 54 -50z"/>
<path d="M1856 5262 c-148 -84 -273 -232 -231 -274 16 -16 289 167 324 217 77
110 40 133 -93 57z"/>
<path d="M3980 5303 c0 -73 270 -323 349 -323 24 0 9 69 -28 128 -52 84 -321
248 -321 195z"/>
<path d="M2162 5280 c-72 -17 -165 -78 -177 -116 -12 -35 121 -30 210 7 192
80 169 157 -33 109z"/>
<path d="M3651 5282 c-70 -28 106 -127 245 -138 l114 -9 -40 44 c-76 85 -237
137 -319 103z"/>
<path d="M1474 5025 c-146 -121 -259 -325 -180 -325 52 0 286 277 286 338 0
77 3 77 -106 -13z"/>
<path d="M2310 5061 c-1356 -484 -1902 -2078 -1112 -3248 166 -246 215 -295
295 -289 41 2 80 -9 101 -29 38 -38 50 -32 -162 -86 -75 -19 -242 -89 -370
-156 -208 -108 -245 -121 -354 -122 l-122 -1 17 -60 c23 -81 22 -275 -3 -339
-51 -134 178 -116 532 41 427 188 593 230 761 192 l82 -19 13 111 c7 61 21
121 31 133 12 15 -23 43 -106 87 -69 35 -196 127 -282 204 -86 77 -164 140
-174 140 -45 0 -317 470 -396 685 -169 459 -153 1062 41 1526 218 523 724 972
1288 1141 66 20 122 37 124 38 3 1 -1 22 -7 46 -14 53 -59 55 -197 5z m-591
-3811 c29 -17 26 -64 -4 -78 -14 -6 -7 -9 15 -5 22 3 38 17 35 31 -4 14 3 19
15 12 11 -7 20 -25 20 -41 0 -28 -19 -32 -195 -37 -36 -1 -65 -9 -65 -18 0 -9
-9 -11 -20 -4 -11 7 -20 1 -20 -13 0 -19 -6 -19 -23 -2 -18 18 -29 17 -45 -5
-30 -39 -172 -97 -172 -69 0 11 -19 3 -43 -20 -24 -22 -51 -35 -60 -29 -9 6
-17 1 -17 -10 0 -11 -15 -15 -33 -8 -24 9 -29 5 -17 -13 10 -18 6 -23 -12 -17
-15 5 -40 -3 -55 -19 -16 -15 -41 -22 -57 -16 -15 6 -23 3 -17 -7 12 -19 -83
-43 -119 -29 -49 19 -28 90 36 117 35 14 69 23 77 18 7 -4 18 7 25 24 8 21 27
29 52 22 26 -6 35 -2 27 11 -9 14 -1 17 21 9 20 -8 29 -6 22 6 -7 11 -3 20 9
20 11 0 26 0 31 0 6 0 29 19 52 42 25 25 57 38 80 32 21 -6 34 -3 28 6 -5 9 3
21 19 27 16 6 33 0 38 -13 5 -13 11 -7 11 13 1 25 12 33 32 26 17 -7 30 -1 30
13 1 17 5 16 18 -3 13 -21 19 -21 28 4 17 44 194 60 253 23z"/>
<path d="M4380 5060 c0 -68 49 -143 178 -269 132 -130 164 -111 95 56 -48 113
-273 289 -273 213z"/>
<path d="M1850 5057 c-213 -116 -220 -122 -171 -141 71 -26 416 103 390 146
-16 25 -170 22 -219 -5z"/>
<path d="M3892 5063 c-19 -30 254 -143 346 -143 107 0 93 24 -59 100 -115 58
-264 80 -287 43z"/>
<path d="M1550 4849 c-127 -63 -268 -207 -204 -208 104 -2 405 187 352 221
-40 25 -79 21 -148 -13z"/>
<path d="M4263 4863 c-52 -34 252 -223 359 -223 44 0 44 1 6 42 -116 128 -304
222 -365 181z"/>
<path d="M1118 4705 c-100 -112 -157 -258 -126 -324 31 -65 233 250 224 350
l-6 76 -92 -102z"/>
<path d="M4740 4733 c0 -95 209 -420 229 -357 24 76 -12 184 -101 305 -100
136 -128 147 -128 52z"/>
<path d="M1260 4571 c-47 -25 -220 -214 -220 -240 0 -73 280 117 341 232 25
46 -43 51 -121 8z"/>
<path d="M4560 4589 c0 -24 192 -214 243 -241 147 -76 148 -27 2 129 -104 111
-245 175 -245 112z"/>
<path d="M875 4395 c-103 -157 -156 -387 -98 -423 27 -17 163 297 163 376 0
87 -26 106 -65 47z"/>
<path d="M5032 4409 c-23 -61 -12 -112 61 -282 79 -184 114 -196 114 -40 0
142 -143 405 -175 322z"/>
<path d="M1030 4243 c-53 -33 -166 -194 -201 -287 -46 -122 175 69 260 227 59
107 43 123 -59 60z"/>
<path d="M4820 4269 c0 -55 218 -312 285 -335 48 -17 44 -2 -32 136 -74 134
-253 275 -253 199z"/>
<path d="M620 3880 c-48 -148 -46 -263 6 -314 48 -49 137 334 95 411 -36 68
-53 52 -101 -97z"/>
<path d="M5238 3965 c-21 -56 51 -425 83 -425 66 0 71 240 8 396 -39 98 -62
105 -91 29z"/>
<path d="M823 3843 c-63 -67 -153 -323 -115 -323 50 0 232 292 232 372 0 29
-73 -1 -117 -49z"/>
<path d="M5086 3747 c58 -139 153 -254 184 -223 20 19 -85 278 -132 328 -100
106 -122 62 -52 -105z"/>
<path d="M3460 3720 c-15 -21 -34 -34 -42 -29 -8 5 -4 -13 9 -41 13 -27 33
-50 46 -50 14 0 19 -17 12 -44 -11 -42 -12 -42 -27 -5 -14 37 -15 37 -17 -4 0
-23 13 -48 29 -54 21 -8 30 1 30 30 0 23 23 69 51 102 36 42 45 67 30 82 -26
26 -42 10 -46 -45 -2 -26 -17 -42 -39 -42 -44 0 -47 46 -6 87 17 17 23 35 14
41 -9 5 -29 -7 -44 -28z"/>
<path d="M511 3545 c-56 -144 -17 -415 64 -440 32 -10 36 378 4 436 -25 48
-51 50 -68 4z"/>
<path d="M5383 3537 c-31 -49 -34 -394 -4 -424 63 -63 121 251 76 412 -19 66
-37 69 -72 12z"/>
<path d="M726 3455 c-46 -51 -77 -140 -96 -280 -25 -189 90 -68 139 145 45
200 38 223 -43 135z"/>
<path d="M5160 3485 c3 -123 102 -374 157 -395 58 -22 -10 303 -78 371 -39 39
-79 51 -79 24z"/>
<path d="M460 2990 c1 -172 99 -398 150 -347 30 31 -50 386 -98 434 l-52 52 0
-139z"/>
<path d="M5457 3086 c-51 -60 -58 -79 -87 -260 -35 -216 -3 -246 83 -80 72
140 76 423 4 340z"/>
<path d="M5221 2934 c-1 -176 37 -310 80 -283 46 28 22 344 -30 403 l-50 56 0
-176z"/>
<path d="M689 3039 c-43 -48 -65 -276 -34 -358 l19 -49 31 49 c32 51 63 399
36 399 -8 0 -32 -19 -52 -41z"/>
<path d="M734 2634 c-60 -92 -1 -484 60 -403 31 41 25 272 -10 397 l-16 58
-34 -52z"/>
<path d="M5163 2544 c-29 -177 -29 -227 0 -298 l23 -56 36 110 c48 147 48 283
1 341 -36 45 -36 45 -60 -97z"/>
<path d="M489 2577 c41 -200 148 -377 230 -377 26 0 -74 286 -126 364 -64 95
-121 102 -104 13z"/>
<path d="M5383 2589 c-43 -55 -154 -365 -137 -382 60 -59 234 257 234 424 0
29 -63 1 -97 -42z"/>
<path d="M842 2223 c-32 -58 -5 -179 72 -330 51 -100 53 -101 67 -50 34 124
-92 467 -139 380z"/>
<path d="M5040 2148 c-53 -137 -77 -328 -42 -328 66 0 164 345 116 408 -27 36
-32 31 -74 -80z"/>
<path d="M611 2135 c48 -160 190 -335 272 -335 49 0 -70 234 -166 325 -72 69
-125 74 -106 10z"/>
<path d="M5232 2112 c-103 -113 -200 -312 -152 -312 83 0 280 252 280 359 0
43 -67 19 -128 -47z"/>
<path d="M192 1865 c-8 -25 -9 -73 -2 -105 16 -75 0 -77 -39 -5 l-29 55 -1
-56 c-2 -159 83 -210 387 -232 183 -13 219 -22 262 -62 l50 -47 0 45 c0 140
-103 213 -340 240 -179 20 -230 50 -257 150 -16 59 -17 60 -31 17z"/>
<path d="M5740 1863 c0 -112 -65 -149 -299 -173 -161 -16 -227 -50 -268 -137
-52 -109 -45 -151 15 -95 41 39 82 48 268 63 298 24 372 61 385 189 8 80 -3
101 -26 50 -23 -48 -24 -47 -30 30 -8 88 -45 148 -45 73z"/>
<path d="M1030 1836 c-20 -79 131 -376 192 -376 60 0 -24 237 -132 372 l-47
58 -13 -54z"/>
<path d="M4855 1808 c-104 -166 -144 -281 -115 -328 19 -31 176 195 193 278
22 111 -21 140 -78 50z"/>
<path d="M800 1749 c0 -93 324 -371 374 -321 16 15 -169 237 -240 287 -58 41
-134 61 -134 34z"/>
<path d="M5011 1698 c-94 -82 -239 -257 -225 -271 52 -52 374 222 374 317 0
37 -84 11 -149 -46z"/>
<path d="M672 1375 c-162 -93 -128 -240 37 -160 105 51 126 86 94 156 -27 60
-33 60 -131 4z"/>
<path d="M5160 1379 c-35 -64 -4 -117 92 -164 174 -85 203 75 30 164 -98 50
-96 50 -122 0z"/>
<path d="M3760 1155 c-71 -33 -132 -61 -135 -64 -3 -2 13 -75 35 -161 50 -194
50 -190 -8 -190 -52 0 -102 -47 -83 -78 7 -12 72 13 157 58 79 42 207 93 284
113 158 39 188 57 156 89 -15 15 -44 9 -103 -20 -96 -49 -96 -49 -134 151 -36
186 -14 173 -169 102z"/>
<path d="M2054 1147 c-6 -20 -16 -72 -24 -114 -26 -159 -41 -178 -109 -144
-66 35 -141 41 -141 12 0 -11 38 -30 85 -42 204 -55 311 -96 405 -155 68 -42
106 -56 120 -42 24 25 -40 78 -94 78 -44 0 -45 -10 5 184 23 88 38 162 35 164
-13 6 -208 77 -239 86 -21 6 -37 -4 -43 -27z"/>
<path d="M2362 983 c-12 -51 -27 -112 -33 -135 -31 -107 523 -217 851 -169
166 24 416 91 446 120 14 13 -36 257 -56 277 -3 3 -63 -10 -133 -29 -175 -49
-773 -51 -941 -4 l-114 33 -20 -93z"/>
</g>
</svg>
